<?xml version="1.0" encoding="utf-8"?>
<!-- Generator: Adobe Illustrator 19.2.0, SVG Export Plug-In . SVG Version: 6.00 Build 0)  -->
<svg version="1.1" id="Layer_1" xmlns="http://www.w3.org/2000/svg" xmlns:xlink="http://www.w3.org/1999/xlink" x="0px" y="0px"
	 viewBox="0 0 595.3 841.9" style="enable-background:new 0 0 595.3 841.9;" xml:space="preserve">
<style type="text/css">
	.st0{font-family:'OriyaMN';}
	.st1{font-size:40px;}
	.st2{fill:#FFC808;}
	.st3{font-family:'BanglaMN';}
	.st4{font-family:'Kefa-Regular';}
	.st5{font-family:'Krungthep';}
	.st6{fill:#FFC42C;}
	.st7{font-family:'Pixellari';}
</style>
<text transform="matrix(1 0 0 1 131.7776 302.8888)" class="st0 st1">Up Your Game</text>
<path class="st2" d="M148.5,362.3h6.7v23.3c0,1.8-0.7,3.4-2,4.7c-1.3,1.3-2.9,2-4.7,2h-6.7c-1.8,0-3.4-0.7-4.7-2
	c-1.3-1.3-2-2.9-2-4.7v-23.3h6.7v23.3c0,0.9,0.3,1.7,1,2.3c0.7,0.7,1.4,1,2.4,1c0.9,0,1.7-0.3,2.4-1c0.7-0.7,1-1.4,1-2.3V362.3z"/>
<path class="st2" d="M161.8,369h6.7v3.3c0-1.1,0.3-2,0.8-2.5c0.6-0.6,1.4-0.8,2.5-0.8h3.3c1.8,0,3.4,0.7,4.7,2c1.3,1.3,2,2.9,2,4.7
	v10c0,1.8-0.7,3.4-2,4.7c-1.3,1.3-2.9,2-4.7,2h-6.7v6.7h-6.7V369z M168.4,389h3.3c0.9,0,1.7-0.3,2.4-1c0.7-0.7,1-1.4,1-2.3v-10
	c0-0.9-0.3-1.7-1-2.4c-0.7-0.7-1.4-1-2.4-1c-0.9,0-1.7,0.3-2.4,1s-1,1.4-1,2.4V389z"/>
<path class="st2" d="M204.9,392.3V379c-4.4-0.5-6.7-2.7-6.7-6.7v-10h6.7v10c0,0.9,0.3,1.7,1,2.4c0.7,0.7,1.4,1,2.4,1
	c0.9,0,1.7-0.3,2.4-1c0.7-0.7,1-1.4,1-2.4v-10h6.7v10c0,3.9-2.2,6.1-6.7,6.7v13.3H204.9z"/>
<path class="st2" d="M231.5,369h6.7c1.8,0,3.4,0.7,4.7,2c1.3,1.3,2,2.9,2,4.7v10c0,1.8-0.7,3.4-2,4.7c-1.3,1.3-2.9,2-4.7,2h-6.7
	c-1.8,0-3.4-0.7-4.7-2c-1.3-1.3-2-2.9-2-4.7v-10c0-1.8,0.7-3.4,2-4.7C228.1,369.6,229.7,369,231.5,369z M231.5,375.7v10
	c0,0.9,0.3,1.7,1,2.3c0.7,0.7,1.4,1,2.4,1c0.9,0,1.7-0.3,2.4-1c0.7-0.7,1-1.4,1-2.3v-10c0-0.9-0.3-1.7-1-2.4c-0.7-0.7-1.4-1-2.4-1
	c-0.9,0-1.7,0.3-2.4,1S231.5,374.8,231.5,375.7z"/>
<path class="st2" d="M271.5,369v23.3h-6.7V389c-0.3,2.2-1.4,3.3-3.3,3.3h-3.3c-1.8,0-3.4-0.7-4.7-2c-1.3-1.3-2-2.9-2-4.7V369h6.7
	v16.7c0,0.9,0.3,1.7,1,2.3c0.7,0.7,1.4,1,2.4,1c0.9,0,1.7-0.3,2.4-1c0.7-0.7,1-1.4,1-2.3V369H271.5z"/>
<path class="st2" d="M284.8,392.3h-6.7V369h6.7v6.7c0.3-2.2,0.9-3.9,2.1-5c1.1-1.1,2.7-1.7,4.6-1.7h3.3v6.7h-6.7
	c-0.9,0-1.7,0.3-2.4,1c-0.7,0.7-1,1.4-1,2.3V392.3z"/>
<path class="st2" d="M317.9,375.7h10v10c0,2.2-0.7,3.9-2.1,5c-1.4,1.1-2.9,1.7-4.5,1.7h-6.7c-1.8,0-3.4-0.7-4.7-2
	c-1.3-1.3-2-2.9-2-4.7V369c0-1.8,0.6-3.3,1.9-4.7c1.3-1.3,2.9-2,4.7-2h6.7c4.2,0,6.4,2.2,6.7,6.7h-3.3c-0.3-2.2-1.4-3.3-3.3-3.3
	h-3.3c-0.9,0-1.7,0.3-2.4,1c-0.7,0.7-1,1.4-1,2.3v16.7c0,0.9,0.3,1.7,1,2.3c0.7,0.6,1.4,1,2.4,1c2.1-0.1,3.2-1.2,3.3-3.3V379h-3.3
	V375.7z"/>
<path class="st2" d="M347.9,379v-3.3c0-0.9-0.3-1.7-1-2.4c-0.7-0.7-1.4-1-2.4-1h-3.3c-2,0-3.1,1.1-3.3,3.3h-3.3
	c0.5-4.5,2.7-6.7,6.7-6.7h6.7c1.8,0,3.4,0.7,4.7,2c1.3,1.3,2,2.9,2,4.7v16.7h-6.7V389c-0.3,2.2-1.4,3.3-3.3,3.3h-3.3
	c-1.8,0-3.4-0.7-4.7-2c-1.3-1.3-2-2.9-2-4.7v0c0-1.8,0.7-3.4,2-4.7c1.3-1.3,2.9-2,4.7-2H347.9z M347.9,382.3h-3.3
	c-0.9,0-1.7,0.3-2.4,1c-0.7,0.7-1,1.4-1,2.3v0c0,0.9,0.3,1.7,1,2.3c0.7,0.7,1.4,1,2.4,1c0.9,0,1.7-0.3,2.4-1c0.7-0.7,1-1.4,1-2.3
	V382.3z"/>
<path class="st2" d="M381.2,392.3h-6.7v-16.7c0-0.9-0.3-1.7-1-2.4c-0.7-0.7-1.4-1-2.4-1c-0.9,0-1.7,0.3-2.4,1s-1,1.4-1,2.4v16.7
	h-6.7V369h6.7v3.3c0.1-1.1,0.5-2,1-2.5c0.6-0.6,1.3-0.8,2.3-0.8h3.3c2.3,0,3.9,0.8,5,2.4c0.5-0.8,1.2-1.4,2-1.8
	c0.8-0.4,1.8-0.6,3-0.6h3.3c1.8,0,3.4,0.7,4.7,2c1.3,1.3,2,2.9,2,4.7v16.7h-6.7v-16.7c0-0.9-0.3-1.7-1-2.4c-0.7-0.7-1.4-1-2.3-1
	c-0.9,0-1.7,0.3-2.4,1s-1,1.4-1,2.4V392.3z"/>
<path class="st2" d="M421.2,382.3h-13.3v3.3c0,0.9,0.3,1.7,1,2.3c0.7,0.7,1.4,1,2.4,1h3.3c2.2,0,3.3-1.1,3.3-3.3h3.3
	c-0.5,4.4-2.7,6.7-6.7,6.7h-6.7c-1.8,0-3.4-0.7-4.7-2c-1.3-1.3-2-2.9-2-4.7v-10c0-1.8,0.7-3.4,2-4.7c1.3-1.3,2.9-2,4.7-2h6.7
	c1.8,0,3.4,0.7,4.7,2c1.3,1.3,2,2.9,2,4.7V382.3z M407.9,379h6.7v-3.3c0-0.9-0.3-1.7-1-2.4c-0.7-0.7-1.4-1-2.4-1
	c-0.9,0-1.7,0.3-2.4,1s-1,1.4-1,2.4V379z"/>
<text transform="matrix(1 0 0 1 131.7778 477.8891)" class="st0 st1">Up Your Game</text>
<text transform="matrix(1 0 0 1 131.7773 225.6664)" class="st3 st1">Up Your Game</text>
<text transform="matrix(1 0 0 1 131.7778 134.5556)" class="st4 st1">Up Your Game!</text>
<text transform="matrix(1 0 0 1 135.121 535.251)" class="st2 st5 st1">Up Your Game!</text>
<g>
	<path class="st6" d="M149.4,561.7h6.7V585c0,1.8-0.7,3.4-2,4.7c-1.3,1.3-2.9,2-4.7,2h-6.7c-1.8,0-3.4-0.7-4.7-2
		c-1.3-1.3-2-2.9-2-4.7v-23.3h6.7V585c0,0.9,0.3,1.7,1,2.3c0.7,0.7,1.4,1,2.4,1c0.9,0,1.7-0.3,2.4-1c0.7-0.7,1-1.4,1-2.3V561.7z"/>
	<path class="st6" d="M162.8,568.3h6.7v3.3c0-1.1,0.3-2,0.8-2.5s1.4-0.8,2.5-0.8h3.3c1.8,0,3.4,0.7,4.7,2c1.3,1.3,2,2.9,2,4.7v10
		c0,1.8-0.7,3.4-2,4.7c-1.3,1.3-2.9,2-4.7,2h-6.7v6.7h-6.7V568.3z M169.4,588.3h3.3c0.9,0,1.7-0.3,2.4-1c0.7-0.7,1-1.4,1-2.3v-10
		c0-0.9-0.3-1.7-1-2.4c-0.7-0.7-1.4-1-2.4-1c-0.9,0-1.7,0.3-2.4,1s-1,1.4-1,2.4V588.3z"/>
	<path class="st6" d="M205.8,591.7v-13.3c-4.4-0.5-6.7-2.7-6.7-6.7v-10h6.7v10c0,0.9,0.3,1.7,1,2.4s1.4,1,2.4,1c0.9,0,1.7-0.3,2.4-1
		c0.7-0.7,1-1.4,1-2.4v-10h6.7v10c0,3.9-2.2,6.1-6.7,6.7v13.3H205.8z"/>
	<path class="st6" d="M232.5,568.3h6.7c1.8,0,3.4,0.7,4.7,2c1.3,1.3,2,2.9,2,4.7v10c0,1.8-0.7,3.4-2,4.7c-1.3,1.3-2.9,2-4.7,2h-6.7
		c-1.8,0-3.4-0.7-4.7-2c-1.3-1.3-2-2.9-2-4.7v-10c0-1.8,0.7-3.4,2-4.7S230.7,568.3,232.5,568.3z M232.5,575v10c0,0.9,0.3,1.7,1,2.3
		c0.7,0.7,1.4,1,2.4,1c0.9,0,1.7-0.3,2.4-1c0.7-0.7,1-1.4,1-2.3v-10c0-0.9-0.3-1.7-1-2.4c-0.7-0.7-1.4-1-2.4-1c-0.9,0-1.7,0.3-2.4,1
		S232.5,574.1,232.5,575z"/>
	<path class="st6" d="M272.5,568.3v23.3h-6.7v-3.3c-0.3,2.2-1.4,3.3-3.3,3.3h-3.3c-1.8,0-3.4-0.7-4.7-2c-1.3-1.3-2-2.9-2-4.7v-16.7
		h6.7V585c0,0.9,0.3,1.7,1,2.3c0.7,0.7,1.4,1,2.4,1c0.9,0,1.7-0.3,2.4-1c0.7-0.7,1-1.4,1-2.3v-16.7H272.5z"/>
	<path class="st6" d="M285.8,591.7h-6.7v-23.3h6.7v6.7c0.3-2.2,0.9-3.9,2.1-5c1.1-1.1,2.7-1.7,4.6-1.7h3.3v6.7h-6.7
		c-0.9,0-1.7,0.3-2.4,1s-1,1.4-1,2.3V591.7z"/>
	<path class="st6" d="M318.9,575h10v10c0,2.2-0.7,3.9-2.1,5s-2.9,1.7-4.5,1.7h-6.7c-1.8,0-3.4-0.7-4.7-2c-1.3-1.3-2-2.9-2-4.7v-16.7
		c0-1.8,0.6-3.3,1.9-4.7c1.3-1.3,2.9-2,4.7-2h6.7c4.2,0,6.4,2.2,6.7,6.7h-3.3c-0.3-2.2-1.4-3.3-3.3-3.3h-3.3c-0.9,0-1.7,0.3-2.4,1
		s-1,1.4-1,2.3V585c0,0.9,0.3,1.7,1,2.3s1.4,1,2.4,1c2.1-0.1,3.2-1.2,3.3-3.3v-6.7h-3.3V575z"/>
	<path class="st6" d="M348.9,578.3V575c0-0.9-0.3-1.7-1-2.4c-0.7-0.7-1.4-1-2.4-1h-3.3c-2,0-3.1,1.1-3.3,3.3h-3.3
		c0.5-4.5,2.7-6.7,6.7-6.7h6.7c1.8,0,3.4,0.7,4.7,2c1.3,1.3,2,2.9,2,4.7v16.7h-6.7v-3.3c-0.3,2.2-1.4,3.3-3.3,3.3h-3.3
		c-1.8,0-3.4-0.7-4.7-2c-1.3-1.3-2-2.9-2-4.7v0c0-1.8,0.7-3.4,2-4.7s2.9-2,4.7-2H348.9z M348.9,581.7h-3.3c-0.9,0-1.7,0.3-2.4,1
		s-1,1.4-1,2.3v0c0,0.9,0.3,1.7,1,2.3c0.7,0.7,1.4,1,2.4,1c0.9,0,1.7-0.3,2.4-1c0.7-0.7,1-1.4,1-2.3V581.7z"/>
	<path class="st6" d="M382.2,591.7h-6.7V575c0-0.9-0.3-1.7-1-2.4c-0.7-0.7-1.4-1-2.4-1c-0.9,0-1.7,0.3-2.4,1s-1,1.4-1,2.4v16.7h-6.7
		v-23.3h6.7v3.3c0.1-1.1,0.5-2,1-2.5c0.6-0.6,1.3-0.8,2.3-0.8h3.3c2.3,0,3.9,0.8,5,2.4c0.5-0.8,1.2-1.4,2-1.8c0.8-0.4,1.8-0.6,3-0.6
		h3.3c1.8,0,3.4,0.7,4.7,2c1.3,1.3,2,2.9,2,4.7v16.7h-6.7V575c0-0.9-0.3-1.7-1-2.4s-1.4-1-2.3-1c-0.9,0-1.7,0.3-2.4,1s-1,1.4-1,2.4
		V591.7z"/>
	<path class="st6" d="M422.2,581.7h-13.3v3.3c0,0.9,0.3,1.7,1,2.3c0.7,0.7,1.4,1,2.4,1h3.3c2.2,0,3.3-1.1,3.3-3.3h3.3
		c-0.5,4.4-2.7,6.7-6.7,6.7h-6.7c-1.8,0-3.4-0.7-4.7-2c-1.3-1.3-2-2.9-2-4.7v-10c0-1.8,0.7-3.4,2-4.7s2.9-2,4.7-2h6.7
		c1.8,0,3.4,0.7,4.7,2c1.3,1.3,2,2.9,2,4.7V581.7z M408.9,578.3h6.7V575c0-0.9-0.3-1.7-1-2.4c-0.7-0.7-1.4-1-2.4-1
		c-0.9,0-1.7,0.3-2.4,1s-1,1.4-1,2.4V578.3z"/>
	<path class="st6" d="M432.2,581.7v-20h6.7v20H432.2z M432.2,591.7V585h6.7v6.7H432.2z"/>
</g>
<text transform="matrix(1 0 0 1 135.121 535.251)" class="st2 st5 st1">Up Your Game!</text>
<text transform="matrix(1 0 0 1 135.121 535.251)" class="st2 st5 st1">Up Your Game!</text>
<text transform="matrix(1 0 0 1 135.121 535.251)" class="st2 st5 st1">Up Your Game!</text>
<text transform="matrix(1 0 0 1 135.121 535.251)" class="st2 st5 st1">Up Your Game!</text>
<text transform="matrix(1 0 0 1 135.1208 428.7731)" class="st2 st7 st1">UP YOUR GAME!</text>
<g>
	<path class="st2" d="M110.8,677.6h-5v5h-25v-5h-5v-5h-5v-35h5v-5h10v5h10v-5h10v5h5V677.6z M80.8,667.6v-30h-5v30H80.8z
		 M95.8,672.6v-5h-15v5H95.8z M100.8,667.6v-30h-5v30H100.8z"/>
	<path class="st2" d="M150.8,657.6h-5v5h-5v5h-10v15h-15v-5h-5v-40h5v-5h25v5h5v5h5V657.6z M135.8,657.6v-5h-15v-10h15v-5h-20v35h5
		v-15H135.8z M140.8,652.6v-10h-5v10H140.8z"/>
	<path class="st2" d="M220.8,652.6h-5v5h-5v5h-5v20h-15v-5h-5v-15h-5v-5h-5v-5h-5v-15h5v-5h10v5h5v5h5v5h5v-10h5v-5h10v5h5V652.6z
		 M180.8,647.6v-10h-5v10H180.8z M185.8,652.6v-5h-5v5H185.8z M200.8,657.6v-5h-15v5h5v15h5v-15H200.8z M205.8,652.6v-5h-5v5H205.8z
		 M210.8,647.6v-10h-5v10H210.8z"/>
	<path class="st2" d="M260.8,677.6h-5v5h-25v-5h-5v-5h-5v-30h5v-5h5v-5h20v5h5v5h5V677.6z M230.8,667.6v-25h-5v25H230.8z
		 M245.8,642.6v-5h-15v5H245.8z M245.8,672.6v-5h-15v5H245.8z M250.8,667.6v-25h-5v25H250.8z"/>
	<path class="st2" d="M300.8,677.6h-5v5h-25v-5h-5v-5h-5v-35h5v-5h10v5h10v-5h10v5h5V677.6z M270.8,667.6v-30h-5v30H270.8z
		 M285.8,672.6v-5h-15v5H285.8z M290.8,667.6v-30h-5v30H290.8z"/>
	<path class="st2" d="M340.8,682.6h-15v-5h-5v5h-15v-5h-5v-40h5v-5h25v5h5v5h5v10h-5v5h5V682.6z M325.8,657.6v-5h-15v-10h15v-5h-20
		v35h5v-15H325.8z M330.8,652.6v-10h-5v10H330.8z M330.8,672.6v-15h-5v15H330.8z"/>
	<path class="st2" d="M400.8,677.6h-5v5h-25v-5h-5v-5h-5v-30h5v-5h5v-5h25v5h5V677.6z M370.8,667.6v-25h-5v25H370.8z M390.8,642.6
		v-5h-20v5H390.8z M385.8,672.6v-5h-15v5H385.8z M390.8,667.6v-15h-10v5h5v10H390.8z"/>
	<path class="st2" d="M440.8,682.6h-15v-5h-5v5h-15v-5h-5v-35h5v-5h5v-5h20v5h5v5h5V682.6z M430.8,672.6v-30h-5v10h-15v-10h-5v30h5
		v-15h15v15H430.8z M425.8,642.6v-5h-15v5H425.8z"/>
	<path class="st2" d="M490.8,682.6h-15v-5h-5v-10h-10v15h-15v-5h-5v-40h5v-5h10v5h5v5h10v-5h5v-5h10v5h5V682.6z M455.8,647.6v-5h-5
		v-5h-5v35h5v-25H455.8z M460.8,652.6v-5h-5v5H460.8z M465.8,657.6v-5h-5v5H465.8z M470.8,652.6v-5h-5v5H470.8z M480.8,672.6v-35h-5
		v5h-5v5h5v25H480.8z"/>
	<path class="st2" d="M525.8,682.6h-30v-5h-5v-40h5v-5h25v5h5v10h-5v5h5v10h-5v5h5V682.6z M515.8,672.6v-5h-15v-10h15v-5h-15v-10h15
		v-5h-20v35H515.8z"/>
	<path class="st2" d="M545.8,682.6h-15v-5h-5v-40h5v-5h10v5h5V682.6z M535.8,662.6v-25h-5v25H535.8z M535.8,672.6v-5h-5v5H535.8z"/>
</g>
</svg>
