<svg height="496pt" viewBox="0 0 496 496" width="496pt" xmlns="http://www.w3.org/2000/svg"><path d="m56 360c0 13.253906-10.746094 24-24 24s-24-10.746094-24-24 10.746094-24 24-24 24 10.746094 24 24zm0 0" fill="#df9363"/><path d="m40 360c0-12.441406-7.164062-22.527344-16-22.527344s-16 10.085938-16 22.527344 7.164062 22.527344 16 22.527344 16-10.085938 16-22.527344zm0 0" fill="#eea273"/><path d="m128 456c0 17.671875-14.328125 32-32 32s-32-14.328125-32-32 14.328125-32 32-32 32 14.328125 32 32zm0 0" fill="#ca5057"/><path d="m112 456c0-17.050781-10.746094-30.871094-24-30.871094s-24 13.820313-24 30.871094 10.746094 30.871094 24 30.871094 24-13.820313 24-30.871094zm0 0" fill="#dc6068"/><path d="m488 248-24-40h-48l-24 40 24 40h48zm0 0" fill="#5789d6"/><path d="m416 288-24-40h-48l-24 40 24 40h48zm0 0" fill="#df9363"/><path d="m488 408-24-40h-48l-24 40 24 40h48zm0 0" fill="#eebc5a"/><path d="m416 448-24-40h-48l-24 40 24 40h48zm0 0" fill="#bc8f6f"/><path d="m344 408-24-40h-48l-24 40 24 40h48zm0 0" fill="#d46b69"/><path d="m272 368-24-40h-48l-24 40 24 40h48zm0 0" fill="#599072"/><path d="m272 448-24-40h-48l-24 40 24 40h48zm0 0" fill="#699ce6"/><path d="m200 328-24-40h-48l-24 40 24 40h48zm0 0" fill="#f8cf6a"/><path d="m400 120c0 13.253906-10.746094 24-24 24s-24-10.746094-24-24 10.746094-24 24-24 24 10.746094 24 24zm0 0" fill="#5da351"/><path d="m384 120c0-12.441406-7.164062-22.527344-16-22.527344s-16 10.085938-16 22.527344 7.164062 22.527344 16 22.527344 16-10.085938 16-22.527344zm0 0" fill="#74c865"/><path d="m488 40c0 17.671875-14.328125 32-32 32s-32-14.328125-32-32 14.328125-32 32-32 32 14.328125 32 32zm0 0" fill="#ca5057"/><path d="m472 40c0-17.050781-10.746094-30.871094-24-30.871094s-24 13.820313-24 30.871094 10.746094 30.871094 24 30.871094 24-13.820313 24-30.871094zm0 0" fill="#dc6068"/><path d="m200 136-24-40h-48l-24 40 24 40h48zm0 0" fill="#85b6cf"/><path d="m160 96h-32l-24 40 24 40h32l24-40zm0 0" fill="#94cce7"/><path d="m56 136c0 13.253906-10.746094 24-24 24s-24-10.746094-24-24 10.746094-24 24-24 24 10.746094 24 24zm0 0" fill="#df9363"/><path d="m40 136c0-12.441406-7.164062-22.527344-16-22.527344s-16 10.085938-16 22.527344 7.164062 22.527344 16 22.527344 16-10.085938 16-22.527344zm0 0" fill="#eea273"/><path d="m112 240c0 13.253906-10.746094 24-24 24s-24-10.746094-24-24 10.746094-24 24-24 24 10.746094 24 24zm0 0" fill="#bc8f6f"/><path d="m96 240c0-12.441406-7.164062-22.527344-16-22.527344s-16 10.085938-16 22.527344 7.164062 22.527344 16 22.527344 16-10.085938 16-22.527344zm0 0" fill="#cb9e78"/><path d="m240 240c0 13.253906-10.746094 24-24 24s-24-10.746094-24-24 10.746094-24 24-24 24 10.746094 24 24zm0 0" fill="#eebc5a"/><path d="m224 240c0-12.441406-7.164062-22.527344-16-22.527344s-16 10.085938-16 22.527344 7.164062 22.527344 16 22.527344 16-10.085938 16-22.527344zm0 0" fill="#f8cf6a"/><path d="m296 136c0 13.253906-10.746094 24-24 24s-24-10.746094-24-24 10.746094-24 24-24 24 10.746094 24 24zm0 0" fill="#5789d6"/><path d="m280 136c0-12.441406-7.164062-22.527344-16-22.527344s-16 10.085938-16 22.527344 7.164062 22.527344 16 22.527344 16-10.085938 16-22.527344zm0 0" fill="#699ce6"/><path d="m240 32c0 13.253906-10.746094 24-24 24s-24-10.746094-24-24 10.746094-24 24-24 24 10.746094 24 24zm0 0" fill="#5da351"/><path d="m224 32c0-12.441406-7.164062-22.527344-16-22.527344s-16 10.085938-16 22.527344 7.164062 22.527344 16 22.527344 16-10.085938 16-22.527344zm0 0" fill="#74c865"/><path d="m112 32c0 13.253906-10.746094 24-24 24s-24-10.746094-24-24 10.746094-24 24-24 24 10.746094 24 24zm0 0" fill="#ca5057"/><path d="m96 32c0-12.441406-7.164062-22.527344-16-22.527344s-16 10.085938-16 22.527344 7.164062 22.527344 16 22.527344 16-10.085938 16-22.527344zm0 0" fill="#dc6068"/><path d="m392 496h-48c-2.816406 0-5.414062-1.472656-6.855469-3.878906l-24-40c-1.519531-2.535156-1.519531-5.695313 0-8.234375l24-40c1.441407-2.414063 4.039063-3.886719 6.855469-3.886719h48c2.816406 0 5.414062 1.472656 6.855469 3.878906l24 40c1.519531 2.535156 1.519531 5.695313 0 8.234375l-24 40c-1.441407 2.414063-4.039063 3.886719-6.855469 3.886719zm-43.472656-16h38.9375l19.199218-32-19.199218-32h-38.9375l-19.199219 32zm0 0"/><path d="m464 456h-48c-2.816406 0-5.414062-1.472656-6.855469-3.878906l-24-40c-1.519531-2.535156-1.519531-5.695313 0-8.234375l24-40c1.441407-2.414063 4.039063-3.886719 6.855469-3.886719h48c2.816406 0 5.414062 1.472656 6.855469 3.878906l24 40c1.519531 2.535156 1.519531 5.695313 0 8.234375l-24 40c-1.441407 2.414063-4.039063 3.886719-6.855469 3.886719zm-43.472656-16h38.9375l19.199218-32-19.199218-32h-38.9375l-19.199219 32zm0 0"/><path d="m392 416h-48v-16h43.472656l19.199219-32-19.199219-32h-43.472656v-16h48c2.816406 0 5.414062 1.472656 6.855469 3.878906l24 40c1.519531 2.535156 1.519531 5.695313 0 8.234375l-24 40c-1.441407 2.414063-4.039063 3.886719-6.855469 3.886719zm0 0"/><path d="m320 456h-48c-2.816406 0-5.414062-1.472656-6.855469-3.878906l-24-40c-1.519531-2.535156-1.519531-5.695313 0-8.234375l24-40c1.441407-2.414063 4.039063-3.886719 6.855469-3.886719h48v16h-43.472656l-19.199219 32 19.199219 32h38.9375l21.671875-36.121094 13.71875 8.234375-24 40c-1.441407 2.414063-4.039063 3.886719-6.855469 3.886719zm0 0"/><path d="m464 296h-48c-2.816406 0-5.414062-1.472656-6.855469-3.878906l-24-40c-1.519531-2.535156-1.519531-5.695313 0-8.234375l24-40c1.441407-2.414063 4.039063-3.886719 6.855469-3.886719h48c2.816406 0 5.414062 1.472656 6.855469 3.878906l24 40c1.519531 2.535156 1.519531 5.695313 0 8.234375l-24 40c-1.441407 2.414063-4.039063 3.886719-6.855469 3.886719zm-43.472656-16h38.9375l19.199218-32-19.199218-32h-38.9375l-19.199219 32zm0 0"/><path d="m392 336h-48c-2.816406 0-5.414062-1.472656-6.855469-3.878906l-24-40c-1.519531-2.535156-1.519531-5.695313 0-8.234375l24-40c1.441407-2.414063 4.039063-3.886719 6.855469-3.886719h48c2.816406 0 5.414062 1.472656 6.855469 3.878906l24 40c1.519531 2.535156 1.519531 5.695313 0 8.234375l-24 40c-1.441407 2.414063-4.039063 3.886719-6.855469 3.886719zm-43.472656-16h38.9375l19.199218-32-19.199218-32h-38.9375l-19.199219 32zm0 0"/><path d="m320 296h-48v-16h43.472656l19.199219-32-21.527344-35.878906 13.71875-8.234375 24 40c1.519531 2.539062 1.519531 5.699219 0 8.234375l-24 40c-1.449219 2.40625-4.046875 3.878906-6.863281 3.878906zm0 0"/><path d="m248 416h-48c-2.816406 0-5.414062-1.472656-6.855469-3.878906l-24-40c-1.519531-2.535156-1.519531-5.695313 0-8.234375l24-40c1.441407-2.414063 4.039063-3.886719 6.855469-3.886719h48c2.816406 0 5.414062 1.472656 6.855469 3.878906l24 40c1.519531 2.535156 1.519531 5.695313 0 8.234375l-24 40c-1.441407 2.414063-4.039063 3.886719-6.855469 3.886719zm-43.472656-16h38.9375l19.199218-32-19.199218-32h-38.9375l-19.199219 32zm0 0"/><path d="m176 376h-48c-2.816406 0-5.414062-1.472656-6.855469-3.878906l-24-40 13.71875-8.234375 21.664063 36.113281h38.9375l19.199218-32-21.527343-35.878906 13.71875-8.234375 24 40c1.519531 2.539062 1.519531 5.699219 0 8.234375l-24 40c-1.441407 2.40625-4.039063 3.878906-6.855469 3.878906zm0 0"/><path d="m254.855469 492.121094-13.71875-8.234375 21.535156-35.886719-19.199219-32h-38.9375l-21.671875 36.121094-13.71875-8.234375 24-40c1.441407-2.414063 4.039063-3.886719 6.855469-3.886719h48c2.816406 0 5.414062 1.472656 6.855469 3.878906l24 40c1.519531 2.535156 1.519531 5.695313 0 8.234375zm0 0"/><path d="m176 184h-48c-2.816406 0-5.414062-1.472656-6.855469-3.878906l-24-40c-1.519531-2.535156-1.519531-5.695313 0-8.234375l24-40c1.441407-2.414063 4.039063-3.886719 6.855469-3.886719h48c2.816406 0 5.414062 1.472656 6.855469 3.878906l24 40c1.519531 2.535156 1.519531 5.695313 0 8.234375l-24 40c-1.441407 2.414063-4.039063 3.886719-6.855469 3.886719zm-43.472656-16h38.9375l19.199218-32-19.199218-32h-38.9375l-19.199219 32zm0 0"/><path d="m112 24h80v16h-80zm0 0"/><path d="m220.328125 56.902344 14.097656-7.585938 33.265625 61.78125-14.09375 7.589844zm0 0"/><path d="m220.324219 215.117188 33.257812-61.78125 14.097657 7.585937-33.261719 61.78125zm0 0"/><path d="m112 232h80v16h-80zm0 0"/><path d="m36.320312 160.894531 14.09375-7.585937 33.261719 61.789062-14.09375 7.585938zm0 0"/><path d="m36.324219 111.105469 33.257812-61.78125 14.09375 7.585937-33.257812 61.785156zm0 0"/><path d="m216 272c-17.648438 0-32-14.351562-32-32s14.351562-32 32-32 32 14.351562 32 32-14.351562 32-32 32zm0-48c-8.824219 0-16 7.175781-16 16s7.175781 16 16 16 16-7.175781 16-16-7.175781-16-16-16zm0 0"/><path d="m272 168c-17.648438 0-32-14.351562-32-32s14.351562-32 32-32 32 14.351562 32 32-14.351562 32-32 32zm0-48c-8.824219 0-16 7.175781-16 16s7.175781 16 16 16 16-7.175781 16-16-7.175781-16-16-16zm0 0"/><path d="m216 64c-17.648438 0-32-14.351562-32-32s14.351562-32 32-32 32 14.351562 32 32-14.351562 32-32 32zm0-48c-8.824219 0-16 7.175781-16 16s7.175781 16 16 16 16-7.175781 16-16-7.175781-16-16-16zm0 0"/><path d="m88 272c-17.648438 0-32-14.351562-32-32s14.351562-32 32-32 32 14.351562 32 32-14.351562 32-32 32zm0-48c-8.824219 0-16 7.175781-16 16s7.175781 16 16 16 16-7.175781 16-16-7.175781-16-16-16zm0 0"/><path d="m32 168c-17.648438 0-32-14.351562-32-32s14.351562-32 32-32 32 14.351562 32 32-14.351562 32-32 32zm0-48c-8.824219 0-16 7.175781-16 16s7.175781 16 16 16 16-7.175781 16-16-7.175781-16-16-16zm0 0"/><path d="m88 64c-17.648438 0-32-14.351562-32-32s14.351562-32 32-32 32 14.351562 32 32-14.351562 32-32 32zm0-48c-8.824219 0-16 7.175781-16 16s7.175781 16 16 16 16-7.175781 16-16-7.175781-16-16-16zm0 0"/><path d="m89.753906 60.996094 12.496094-9.996094 32 40-12.496094 9.996094zm0 0"/><path d="m169.757812 91.015625 31.984376-40.011719 12.496093 9.992188-31.984375 40.007812zm0 0"/><path d="m200 128h48v16h-48zm0 0"/><path d="m56 128h48v16h-48zm0 0"/><path d="m89.753906 211.015625 31.984375-40.011719 12.5 9.992188-31.984375 40.007812zm0 0"/><path d="m169.757812 181 12.496094-9.996094 32 40-12.496094 9.996094zm0 0"/><path d="m456 80c-22.054688 0-40-17.945312-40-40s17.945312-40 40-40 40 17.945312 40 40-17.945312 40-40 40zm0-64c-13.230469 0-24 10.769531-24 24s10.769531 24 24 24 24-10.769531 24-24-10.769531-24-24-24zm0 0"/><path d="m376 152c-17.648438 0-32-14.351562-32-32s14.351562-32 32-32 32 14.351562 32 32-14.351562 32-32 32zm0-48c-8.824219 0-16 7.175781-16 16s7.175781 16 16 16 16-7.175781 16-16-7.175781-16-16-16zm0 0"/><path d="m386.335938 98.347656 40-40 11.3125 11.316406-39.996094 39.996094zm0 0"/><path d="m376.832031 147.582031 14.308594-7.15625 32 63.996094-14.308594 7.15625zm0 0"/><path d="m440.070312 207.058594 15.980469-136.003906 15.890625 1.867187-15.980468 136.003906zm0 0"/><path d="m96 496c-22.054688 0-40-17.945312-40-40s17.945312-40 40-40 40 17.945312 40 40-17.945312 40-40 40zm0-64c-13.230469 0-24 10.769531-24 24s10.769531 24 24 24 24-10.769531 24-24-10.769531-24-24-24zm0 0"/><path d="m32 392c-17.648438 0-32-14.351562-32-32s14.351562-32 32-32 32 14.351562 32 32-14.351562 32-32 32zm0-48c-8.824219 0-16 7.175781-16 16s7.175781 16 16 16 16-7.175781 16-16-7.175781-16-16-16zm0 0"/><path d="m41.34375 388.453125 13.3125-8.875 32 48.003906-13.3125 8.875zm0 0"/></svg>